<svg width="25" height="26" viewBox="0 0 25 26" fill="none" xmlns="http://www.w3.org/2000/svg">
<path d="M12.8999 19.7972C11.4513 17.9594 10.5992 16.3484 10.3152 14.97C10.0311 13.85 10.1447 12.9598 10.6276 12.2993C11.1389 11.524 11.9058 11.1507 12.8999 11.1507C13.894 11.1507 14.6609 11.524 15.1722 12.2993C15.6551 12.9598 15.7687 13.85 15.4846 14.97C15.1722 16.3771 14.3201 17.9852 12.8999 19.7972ZM20.8302 24.0473C18.4159 25.1098 16.0272 23.4155 13.9821 21.1182C17.365 16.8365 17.9899 13.5054 16.5384 11.3488C15.6863 10.114 14.4649 9.51093 12.8999 9.51093C9.74708 9.51093 8.01161 12.2103 8.6933 15.3433C9.09095 17.0375 10.1419 18.9644 11.8177 21.1182C10.5607 22.5264 8.91164 24.1238 6.93226 24.3057C4.06348 24.7365 1.81675 21.9222 2.83928 19.019L10.1135 3.79346C10.7343 2.64886 11.5006 1.66843 12.8971 1.66843C13.9196 1.66843 14.7149 2.27148 15.0557 2.75966L22.9548 19.019C23.7287 20.9836 22.7473 23.2103 20.8302 24.0473ZM24.4943 18.4447L17.7314 4.22421C16.4532 1.58228 15.5443 0 12.8999 0C10.2867 0 9.17616 1.83786 8.04001 4.22421L1.30548 18.4447C-0.143114 22.4679 2.83928 26 6.4494 26C6.67666 26 6.90223 25.9713 7.13109 25.9713C9.00574 25.7416 10.94 24.5354 12.8999 22.3788C14.8598 24.5326 16.7941 25.7416 18.6687 25.9713C18.8976 25.9713 19.1231 26 19.3504 26C22.9605 26.0029 25.9429 22.4679 24.4943 18.4447Z" fill="#B6B6B6"/>
</svg>
