<?xml version="1.0" encoding="UTF-8"?>
<svg xmlns="http://www.w3.org/2000/svg" xmlns:xlink="http://www.w3.org/1999/xlink" viewBox="0 0 256 256" width="256px" height="256px">
<g id="surface27684825">
<rect x="0" y="0" width="256" height="256" style="fill:rgb(90.196079%,49.411765%,13.333334%);fill-opacity:1;stroke:none;"/>
<path style=" stroke:none;fill-rule:nonzero;fill:rgb(100%,100%,100%);fill-opacity:1;" d="M 20.023438 36 C 18.957031 35.992188 17.933594 36.414062 17.179688 37.164062 C 16.425781 37.914062 16 38.933594 16 40 L 16 132 C 16 132.894531 16.300781 133.765625 16.851562 134.46875 L 88.851562 226.46875 C 89.609375 227.4375 90.769531 228 92 228 L 164 228 C 165.53125 228 166.925781 227.125 167.597656 225.75 C 168.265625 224.375 168.09375 222.734375 167.148438 221.53125 L 23.148438 37.53125 C 22.394531 36.570312 21.246094 36.007812 20.023438 36 Z M 235.882812 36 C 234.707031 36.035156 233.609375 36.582031 232.875 37.5 L 136.875 157.5 C 135.914062 158.699219 135.726562 160.347656 136.394531 161.734375 C 137.058594 163.121094 138.460938 164 140 164 L 212 164 C 213.207031 164 214.351562 163.453125 215.109375 162.515625 L 239.109375 132.921875 C 239.6875 132.207031 240 131.316406 240 130.398438 L 240 40 C 240 38.917969 239.5625 37.882812 238.789062 37.128906 C 238.011719 36.375 236.964844 35.96875 235.882812 36 Z M 232 51.40625 L 232 128.984375 L 210.09375 156 L 148.328125 156 Z M 24 51.601562 L 155.789062 220 L 93.945312 220 L 24 130.617188 Z M 47.257812 123.835938 C 46.355469 123.84375 45.484375 124.152344 44.78125 124.71875 L 38.476562 129.648438 C 36.734375 131.007812 36.429688 133.523438 37.789062 135.265625 C 39.148438 137.007812 41.664062 137.3125 43.40625 135.953125 L 49.710938 131.023438 C 51.085938 129.980469 51.636719 128.175781 51.078125 126.542969 C 50.523438 124.910156 48.980469 123.820312 47.257812 123.835938 Z M 60.640625 140.945312 C 59.738281 140.953125 58.867188 141.261719 58.164062 141.828125 L 51.867188 146.757812 C 50.742188 147.636719 50.167969 149.054688 50.371094 150.46875 C 50.570312 151.882812 51.507812 153.085938 52.835938 153.621094 C 54.160156 154.15625 55.671875 153.941406 56.796875 153.0625 L 63.09375 148.132812 C 64.46875 147.089844 65.019531 145.285156 64.460938 143.652344 C 63.90625 142.019531 62.363281 140.929688 60.640625 140.945312 Z M 74.039062 158.054688 C 73.136719 158.0625 72.265625 158.371094 71.5625 158.9375 L 65.257812 163.867188 C 64.082031 164.730469 63.46875 166.164062 63.660156 167.613281 C 63.847656 169.058594 64.8125 170.285156 66.167969 170.816406 C 67.527344 171.347656 69.066406 171.097656 70.1875 170.164062 L 76.492188 165.242188 C 77.867188 164.199219 78.417969 162.394531 77.859375 160.761719 C 77.304688 159.128906 75.761719 158.039062 74.039062 158.054688 Z M 87.421875 175.164062 C 86.519531 175.171875 85.648438 175.480469 84.945312 176.046875 L 78.648438 180.976562 C 77.472656 181.839844 76.859375 183.273438 77.050781 184.722656 C 77.238281 186.167969 78.203125 187.394531 79.558594 187.925781 C 80.917969 188.457031 82.457031 188.207031 83.578125 187.273438 L 89.875 182.34375 C 91.242188 181.300781 91.789062 179.5 91.234375 177.871094 C 90.675781 176.242188 89.140625 175.152344 87.421875 175.164062 Z M 100.8125 192.265625 C 99.910156 192.273438 99.039062 192.589844 98.335938 193.15625 L 92.039062 198.078125 C 90.871094 198.945312 90.265625 200.375 90.457031 201.8125 C 90.644531 203.253906 91.601562 204.476562 92.953125 205.011719 C 94.304688 205.546875 95.839844 205.304688 96.960938 204.382812 L 103.265625 199.453125 C 104.640625 198.410156 105.191406 196.605469 104.632812 194.972656 C 104.078125 193.339844 102.535156 192.25 100.8125 192.265625 Z M 100.8125 192.265625 "/>
</g>
</svg>
